<svg width="1920" height="610" viewBox="0 0 1920 610" fill="none" xmlns="http://www.w3.org/2000/svg"><g clip-path="url(#clip0_17_830)"><path transform="translate(-90)" fill="url(#paint0_linear_17_830)" fill-opacity=".2" d="M0 0h2100v610H0z"/><path d="M-90 0H10v100H-90zM10 0h100v100H10zm100 0h100v100H110zm100 0h100v100H210zm100 0h100v100H310zm100 0h100v100H410zm100 0h100v100H510zm100 0h100v100H610zm100 0h100v100H710zm100 0h100v100H810zm100 0h100v100H910zm100 0h100v100h-100zm100 0h100v100h-100zm100 0h100v100h-100zm100 0h100v100h-100zm100 0h100v100h-100zm100 0h100v100h-100zm100 0h100v100h-100zm100 0h100v100h-100zm100 0h100v100h-100zm100 0h100v100h-100zM-90 100H10v100H-90zm100 0h100v100H10zm100 0h100v100H110zm100 0h100v100H210zm100 0h100v100H310zm100 0h100v100H410zm100 0h100v100H510zm100 0h100v100H610zm100 0h100v100H710zm100 0h100v100H810zm100 0h100v100H910zm100 0h100v100h-100zm100 0h100v100h-100zm100 0h100v100h-100zm100 0h100v100h-100zm100 0h100v100h-100zm100 0h100v100h-100zm100 0h100v100h-100zm100 0h100v100h-100zm100 0h100v100h-100zm100 0h100v100h-100zM-90 200H10v100H-90zm100 0h100v100H10zm100 0h100v100H110zm100 0h100v100H210zm100 0h100v100H310zm100 0h100v100H410zm100 0h100v100H510zm100 0h100v100H610zm100 0h100v100H710zm100 0h100v100H810zm100 0h100v100H910zm100 0h100v100h-100zm100 0h100v100h-100zm100 0h100v100h-100zm100 0h100v100h-100zm100 0h100v100h-100zm100 0h100v100h-100zm100 0h100v100h-100zm100 0h100v100h-100zm100 0h100v100h-100zm100 0h100v100h-100zM-90 300H10v100H-90zm100 0h100v100H10zm100 0h100v100H110zm100 0h100v100H210zm100 0h100v100H310zm100 0h100v100H410zm100 0h100v100H510zm100 0h100v100H610zm100 0h100v100H710zm100 0h100v100H810zm100 0h100v100H910zm100 0h100v100h-100zm100 0h100v100h-100zm100 0h100v100h-100zm100 0h100v100h-100zm100 0h100v100h-100zm100 0h100v100h-100zm100 0h100v100h-100zm100 0h100v100h-100zm100 0h100v100h-100zm100 0h100v100h-100zM-90 400H10v100H-90zm100 0h100v100H10zm100 0h100v100H110zm100 0h100v100H210zm100 0h100v100H310zm100 0h100v100H410zm100 0h100v100H510zm100 0h100v100H610zm100 0h100v100H710zm100 0h100v100H810zm100 0h100v100H910zm100 0h100v100h-100zm100 0h100v100h-100zm100 0h100v100h-100zm100 0h100v100h-100zm100 0h100v100h-100zm100 0h100v100h-100zm100 0h100v100h-100zm100 0h100v100h-100zm100 0h100v100h-100zm100 0h100v100h-100zM-90 500H10v100H-90zm100 0h100v100H10zm100 0h100v100H110zm100 0h100v100H210zm100 0h100v100H310zm100 0h100v100H410zm100 0h100v100H510zm100 0h100v100H610zm100 0h100v100H710zm100 0h100v100H810zm100 0h100v100H910zm100 0h100v100h-100zm100 0h100v100h-100zm100 0h100v100h-100zm100 0h100v100h-100zm100 0h100v100h-100zm100 0h100v100h-100zm100 0h100v100h-100zm100 0h100v100h-100zm100 0h100v100h-100zm100 0h100v100h-100zM-90 600H10v100H-90zm100 0h100v100H10zm100 0h100v100H110zm100 0h100v100H210zm100 0h100v100H310zm100 0h100v100H410zm100 0h100v100H510zm100 0h100v100H610zm100 0h100v100H710zm100 0h100v100H810zm100 0h100v100H910zm100 0h100v100h-100zm100 0h100v100h-100zm100 0h100v100h-100zm100 0h100v100h-100zm100 0h100v100h-100zm100 0h100v100h-100zm100 0h100v100h-100zm100 0h100v100h-100zm100 0h100v100h-100zm100 0h100v100h-100z" opacity=".11" stroke="#D9D9D9"/><path transform="matrix(0 -1 -1 0 1921 610)" fill="url(#paint1_linear_17_830)" d="M0 0h410v1922H0z"/></g><defs><linearGradient id="paint0_linear_17_830" x1="1050" y1="0" x2="1050" y2="610" gradientUnits="userSpaceOnUse"><stop/><stop offset="1" stop-opacity="0"/></linearGradient><linearGradient id="paint1_linear_17_830" x1="410" y1="941.293" x2="0" y2="941.293" gradientUnits="userSpaceOnUse"><stop stop-color="#140E14" stop-opacity="0"/><stop offset="1" stop-color="#140E14"/></linearGradient><clipPath id="clip0_17_830"><path fill="#fff" transform="translate(-90)" d="M0 0h2100v610H0z"/></clipPath></defs></svg>